<svg version="1.1" id="Layer_1" xmlns="http://www.w3.org/2000/svg" xmlns:xlink="http://www.w3.org/1999/xlink" x="0px" y="0px"
	 width="100%" viewBox="0 0 1024 1024" enable-background="new 0 0 1024 1024" xml:space="preserve">
<path fill="#000000" opacity="1.000000" stroke="none" 
	d="
M682.000122,181.647766 
	C694.832581,181.647278 707.165894,181.550323 719.497375,181.662979 
	C777.307434,182.191071 829.405273,223.688171 841.839111,283.873657 
	C843.785522,293.295349 844.471069,302.949127 844.446594,312.664246 
	C844.314148,365.160309 844.013977,417.660400 844.501282,470.152344 
	C845.067444,531.143616 844.803162,592.132385 844.858643,653.122070 
	C844.878906,675.432739 845.307739,697.748840 844.374023,720.056335 
	C842.656738,761.084534 825.311218,793.968872 792.701782,818.730835 
	C769.637634,836.244568 743.464478,844.230835 714.477722,844.466370 
	C582.825684,845.536255 451.172882,844.508545 319.521515,844.935913 
	C294.946564,845.015686 271.315857,841.063904 249.676987,829.060486 
	C212.026566,808.175171 189.479080,776.335144 182.779312,733.700378 
	C179.294647,711.525330 181.086349,689.113708 181.053589,666.816284 
	C180.882401,550.324829 180.966660,433.832947 181.030975,317.341248 
	C181.047150,288.038208 187.457474,260.547119 204.802765,236.280334 
	C223.789185,209.717590 248.992081,192.360519 280.833069,184.814667 
	C289.931030,182.658569 299.132568,181.629333 308.522980,181.633957 
	C432.848663,181.695145 557.174377,181.659409 682.000122,181.647766 
M202.352066,732.222839 
	C203.476242,739.309204 205.156525,746.267761 207.682510,752.978699 
	C224.211838,796.893005 267.594727,825.536499 312.492035,825.027100 
	C368.140991,824.395752 423.802643,824.886353 479.458832,824.888000 
	C557.944153,824.890320 636.429565,824.815186 714.914612,824.945435 
	C732.462158,824.974609 749.062134,821.283875 764.382751,812.968201 
	C803.581482,791.692261 824.715698,758.853333 824.802368,713.919556 
	C825.058838,580.944885 824.885986,447.969452 824.915771,314.994324 
	C824.917969,305.302856 824.163940,295.727966 822.140320,286.227417 
	C810.897949,233.445602 761.287659,200.478775 715.710205,200.857742 
	C639.063782,201.495041 562.407715,200.960358 485.755737,200.972107 
	C425.600677,200.981308 365.445190,200.956635 305.290833,201.191360 
	C285.966919,201.266754 268.127808,207.308334 252.151413,217.906097 
	C218.246094,240.396866 201.089478,272.269287 201.064774,313.011169 
	C200.984848,444.819824 201.027740,576.628601 201.063110,708.437317 
	C201.065155,716.085571 200.833481,723.766418 202.352066,732.222839 
z"/>
<path fill="#000000" opacity="1.000000" stroke="none" 
	d="
M585.000000,381.802002 
	C603.996765,381.805878 622.493652,381.767609 640.990234,381.824127 
	C660.259399,381.882965 672.136902,393.750824 672.173218,413.143799 
	C672.251465,454.969910 672.223755,496.796265 672.213623,538.622498 
	C672.213196,540.276855 672.112549,541.965698 671.773987,543.578735 
	C670.975464,547.384277 668.431091,549.246094 664.620911,549.226990 
	C661.051697,549.209106 658.681030,547.438416 657.636169,543.944458 
	C656.761230,541.018799 656.788208,538.023926 656.786621,535.023682 
	C656.766174,495.530304 656.755798,456.036926 656.696594,416.543610 
	C656.693237,414.295715 657.319153,411.824371 654.768066,409.423767 
	C649.256226,412.840668 644.653442,417.637024 639.800720,421.981415 
	C619.960388,439.743408 600.323303,457.732544 580.624451,475.652527 
	C560.068665,494.352051 539.451660,512.985229 519.011536,531.810425 
	C507.901917,542.042297 492.916656,542.809387 481.432129,533.131653 
	C475.579132,528.199463 469.891418,523.065979 464.233612,517.908752 
	C459.276459,513.390137 459.347260,513.325500 454.426605,518.219421 
	C442.376862,530.203552 430.343872,542.204590 418.261902,554.156189 
	C399.676392,572.541199 381.040192,590.875122 362.471924,609.277527 
	C360.502045,611.229797 358.058502,612.859985 357.013519,615.977356 
	C359.158325,617.598633 361.715912,617.483093 364.070953,617.486694 
	C423.390991,617.577026 482.711121,617.604431 542.031250,617.609802 
	C544.853882,617.610046 547.685547,617.080750 550.497070,617.194214 
	C555.288269,617.387573 558.171143,620.288940 558.267456,624.592102 
	C558.364807,628.946899 555.704163,631.681274 550.743958,632.220764 
	C549.424255,632.364319 548.080933,632.313477 546.748413,632.313416 
	C484.591675,632.309998 422.431549,631.935303 360.280273,632.514160 
	C341.102417,632.692749 327.002289,618.202820 327.274658,599.023193 
	C328.152435,537.212219 327.775757,475.380493 327.523010,413.558258 
	C327.444611,394.387238 340.806641,381.889008 359.038300,381.914032 
	C434.192017,382.017212 509.346069,381.861847 585.000000,381.802002 
M580.877319,454.382355 
	C598.281311,438.621307 615.725098,422.903748 633.041504,407.047058 
	C635.341797,404.940643 639.795105,403.028381 638.200867,399.432800 
	C636.768799,396.203064 632.267334,397.338989 629.042847,397.336212 
	C574.219116,397.288788 519.395325,397.313019 464.571564,397.311066 
	C431.077179,397.309875 397.582764,397.280609 364.088409,397.307220 
	C362.184601,397.308746 359.616364,396.537964 358.717560,398.814301 
	C357.761749,401.234863 360.466522,402.111420 361.828400,403.358276 
	C378.408844,418.538605 395.053528,433.648773 411.670258,448.789490 
	C437.884033,472.674774 464.107086,496.549957 490.284180,520.475403 
	C495.992249,525.692505 501.908752,526.243103 507.714661,521.197998 
	C516.004578,513.994324 524.090698,506.549774 532.121033,499.055023 
	C548.064575,484.174713 563.892456,469.170135 580.877319,454.382355 
M438.804504,512.310425 
	C440.349854,510.792419 441.908112,509.287292 443.438202,507.754059 
	C447.703003,503.480499 447.728516,502.769135 443.253662,498.594208 
	C438.625824,494.276520 433.889435,490.075409 429.224701,485.796936 
	C402.602051,461.378479 375.996368,436.941437 349.340973,412.558807 
	C347.952209,411.288483 346.585358,409.022095 344.367493,409.952393 
	C341.972260,410.957153 342.408569,413.602142 342.394928,415.712341 
	C342.320679,427.211487 342.302216,438.711182 342.302979,450.210663 
	C342.306091,498.042480 342.302185,545.874390 342.379608,593.706055 
	C342.385010,597.048157 341.542511,600.713928 344.283936,603.565186 
	C346.884369,603.376953 348.307587,601.538513 349.782532,600.093994 
	C364.054260,586.116577 378.225311,572.036438 392.443695,558.004395 
	C407.720154,542.928162 423.016510,527.872070 438.804504,512.310425 
z"/>
<path fill="#000000" opacity="1.000000" stroke="none" 
	d="
M552.912842,552.968994 
	C551.271179,546.438721 549.687866,540.320435 548.165100,534.187073 
	C546.802002,528.696838 547.043945,523.441040 551.714050,519.528503 
	C556.404358,515.599060 561.598877,515.536621 567.123657,518.064087 
	C601.937317,533.990356 636.792419,549.825867 671.626587,565.707336 
	C687.376892,572.888184 703.063293,580.211487 718.876587,587.250305 
	C724.487854,589.747925 727.081726,593.963501 727.086426,599.747253 
	C727.091309,605.656555 723.579102,609.053589 718.159302,611.003784 
	C707.041382,615.004272 695.985962,619.179993 684.933899,623.360413 
	C682.499146,624.281311 679.866760,624.966125 677.709351,627.557068 
	C684.118347,635.385437 690.524109,643.204285 696.923645,651.028320 
	C703.035950,658.501160 709.288025,665.865662 715.210266,673.486389 
	C721.383179,681.429688 720.693848,688.821411 713.192688,695.530823 
	C707.488159,700.633179 701.580505,705.525452 695.563354,710.257019 
	C687.347351,716.717651 680.073181,715.862671 673.461548,707.843201 
	C662.553162,694.612366 651.723083,681.317017 640.820251,668.081543 
	C639.259644,666.187134 638.010437,663.938538 635.641235,662.796082 
	C633.274536,663.546265 632.431458,665.684509 631.296631,667.442322 
	C624.976013,677.233704 618.715393,687.064148 612.478760,696.909424 
	C609.512390,701.591980 605.580627,704.509155 599.791870,704.298767 
	C593.662964,704.076111 590.173828,701.686523 588.552795,695.610046 
	C584.568298,680.674072 580.804077,665.678223 577.060425,650.679260 
	C570.661194,625.040283 564.342834,599.380981 557.996704,573.728760 
	C556.318970,566.946777 554.663330,560.159363 552.912842,552.968994 
M610.478271,554.116211 
	C595.151550,547.212524 579.824829,540.308899 563.213074,532.826416 
	C575.995789,584.374878 588.359070,634.231689 600.769470,684.278687 
	C603.378540,683.220032 603.989990,681.762512 604.779602,680.549866 
	C612.228210,669.110168 619.594360,657.616699 627.043762,646.177490 
	C631.239746,639.734131 636.652893,639.425903 641.591675,645.303589 
	C644.697205,648.999573 647.713501,652.770447 650.774292,656.504028 
	C661.329468,669.379456 671.922546,682.224060 682.414062,695.151062 
	C684.639465,697.893005 686.531189,698.513733 689.361816,695.854248 
	C692.751465,692.669434 696.410645,689.750122 700.115356,686.929016 
	C703.078857,684.672363 703.588135,682.733582 700.938416,679.666565 
	C695.389343,673.243652 690.213806,666.498962 684.846680,659.917603 
	C676.323608,649.466248 667.616211,639.160522 659.291260,628.554199 
	C654.963745,623.040833 656.443665,618.048584 662.495483,615.799805 
	C674.349548,611.394958 686.241882,607.092224 698.077087,602.637451 
	C701.031982,601.525208 704.201233,600.676697 707.163086,598.175781 
	C690.645813,590.640808 674.765686,583.392944 658.882507,576.151855 
	C642.980042,568.901978 627.074463,561.659119 610.478271,554.116211 
z"/>
<path fill="#000000" opacity="1.000000" stroke="none" 
	d="
M755.233582,385.901245 
	C757.187256,393.301453 757.635376,400.423462 757.332397,407.617371 
	C757.129944,412.425598 754.929443,414.928986 750.579895,415.249451 
	C745.981506,415.588196 743.124939,413.341034 742.445740,408.944702 
	C741.660095,403.859161 741.833862,398.606293 740.836487,393.575653 
	C733.238831,355.255463 711.051880,329.376465 674.244873,316.100922 
	C665.377747,312.902740 656.195068,311.628296 646.827881,311.303833 
	C641.095642,311.105255 638.079102,308.464417 638.114624,303.852142 
	C638.152100,298.982819 641.375671,295.720337 647.053711,295.974854 
	C668.412842,296.932190 688.282104,302.728729 706.361084,314.482391 
	C727.994873,328.547089 742.618530,348.007355 751.436829,372.014709 
	C753.037292,376.372040 753.921265,380.992493 755.233582,385.901245 
z"/>
<path fill="#000000" opacity="1.000000" stroke="none" 
	d="
M722.096924,374.037476 
	C726.853516,384.537384 728.867004,395.269867 729.199219,406.338348 
	C729.356934,411.594513 726.354187,415.009369 721.843384,415.145294 
	C717.477356,415.276855 714.117554,411.763214 713.784546,406.819031 
	C711.706604,375.967896 695.957581,354.985931 667.519226,343.498322 
	C661.239197,340.961517 654.537109,339.334076 647.612305,339.272980 
	C646.455322,339.262787 645.223206,339.278473 644.157837,338.905182 
	C640.377563,337.580811 637.783875,335.192047 638.208801,330.807800 
	C638.618286,326.582458 641.358215,324.860931 645.342957,324.621307 
	C657.607300,323.883789 669.105713,326.821014 680.133850,331.916473 
	C699.178650,340.715912 713.003357,354.766113 722.096924,374.037476 
z"/>
<path fill="#000000" opacity="1.000000" stroke="none" 
	d="
M639.058960,363.764618 
	C637.144836,356.040802 640.217224,351.556519 647.594543,352.111572 
	C677.269226,354.344391 699.618347,375.368561 701.204956,406.423981 
	C701.384094,409.931396 699.978760,412.508118 696.809692,414.163483 
	C693.720215,415.777252 690.992310,414.945557 688.401611,413.107819 
	C686.106262,411.479584 685.823486,409.010254 685.722961,406.436188 
	C684.912415,385.681458 667.784485,370.321442 650.731689,367.554993 
	C646.743225,366.907959 642.209656,368.149658 639.058960,363.764618 
z"/>
</svg>